<svg width="35" height="19" viewBox="0 0 35 19" fill="none" xmlns="http://www.w3.org/2000/svg">
  <path fill-rule="evenodd" clip-rule="evenodd" d="M7.40791 0.546827C7.88558 0.110693 8.64053 0.110693 9.1182 0.546827L15.6999 6.55622C16.1913 7.00489 16.2068 7.74705 15.7345 8.21387C15.2622 8.6807 14.481 8.69543 13.9896 8.24676L9.49713 4.14491L9.49713 17.8053C9.49713 18.4527 8.94461 18.9776 8.26306 18.9776C7.5815 18.9776 7.02898 18.4527 7.02898 17.8053L7.02898 4.14491L2.53648 8.24676C2.04508 8.69543 1.26387 8.6807 0.791584 8.21387C0.319301 7.74705 0.334798 7.00489 0.826197 6.55622L7.40791 0.546827Z" fill="#4B616D"/>
  <path fill-rule="evenodd" clip-rule="evenodd" d="M26.166 18.6507C26.6436 19.0868 27.3986 19.0868 27.8763 18.6507L34.458 12.6413C34.9494 12.1926 34.9649 11.4505 34.4926 10.9836C34.0203 10.5168 33.2391 10.5021 32.7477 10.9508L28.2552 15.0526L28.2552 1.39226C28.2552 0.744776 27.7027 0.219888 27.0211 0.219888C26.3396 0.219888 25.787 0.744776 25.787 1.39226L25.787 15.0526L21.2945 10.9508C20.8031 10.5021 20.0219 10.5168 19.5496 10.9836C19.0774 11.4505 19.0929 12.1926 19.5843 12.6413L26.166 18.6507Z" fill="#4B616D"/>
</svg> 