<?xml version="1.0" encoding="UTF-8"?>
<svg xmlns="http://www.w3.org/2000/svg" xmlns:xlink="http://www.w3.org/1999/xlink" version="1.1" viewBox="0 0 3395 2225" width="800" height="525">
  <defs>
    <style>
      .cls-1 {
        fill: none;
      }

      .cls-2 {
        fill: #292a2e;
      }

      .cls-3 {
        opacity: .2;
      }

      .cls-3, .cls-4, .cls-5 {
        isolation: isolate;
      }

      .cls-3, .cls-6 {
        fill: #0c0c0c;
      }

      .cls-7 {
        fill: #f4f4f4;
      }

      .cls-4 {
        opacity: .1;
      }

      .cls-4, .cls-8 {
        fill: #f54538;
      }

      .cls-9 {
        fill: #0fe366;
      }

      .cls-10 {
        fill: #fff;
      }

      .cls-11 {
        fill: #21353e;
      }

      .cls-5 {
        fill: #0a0a0a;
        opacity: .2;
      }

      .cls-12 {
        clip-path: url(#clippath);
      }

      .cls-13 {
        fill: #ff9e85;
      }
    </style>
    <clipPath id="clippath">
      <rect class="cls-1" y="-51" width="3394.1" height="2276"/>
    </clipPath>
  </defs>
  <!-- Generator: Adobe Illustrator 28.6.0, SVG Export Plug-In . SVG Version: 1.2.0 Build 709)  -->
  <g>
    <g id="Layer_1">
      <g class="cls-12">
        <g>
          <path class="cls-7" d="M3232.6,1045.4h-552.9v558h552.9v-558Z"/>
          <path class="cls-7" d="M3232.6,1603.5h21.9v-558h-21.9v558Z"/>
          <path class="cls-4" d="M7.8,1819.3c-31.1-162.1,29.2-337.9,203.6-482.7,477.2-396.3,456.9-316.7,540.8-793.7C836.1,66,1542-120.1,2064.9,78.7c633,240.7,304.6,331.1,1059.4,733,652.5,347.4,47.8,1002.3-1028.9,1277C1225.1,2310.7,97.9,2288.6,7.8,1819.3Z"/>
          <path class="cls-13" d="M1006.4,1162.2c-1-.1-12,181.9-223.4,166-146.4-11-198.6-166.3-201.9-166.3,15.8-3.4,35.3-8.4,43-10.2,25.8-5.8,57.9-27,65.3-71.8,4.3-25.8-3-157.8-.7-183.9l224.7,50.1c-3.1,55.1-25.1,182.9,51.9,205.5,12.8,3.8,26.6,7.2,41.1,10.5Z"/>
          <path class="cls-3" d="M916.6,1099.5c-3.2-10.2-5.1-19-6.8-34.9-3-28.4-1.4-54.5,1.5-81.1-45.4-6.1-89-25.1-124.2-54.4-4.2,15.4-27.1,82.7-20.8,97.4,12,27.7,68.4,73,150.2,73Z"/>
          <path class="cls-6" d="M1050.2,752.1s64.5-47.9,81.2-159.2c13-86.2-67-30.9-67-30.9,0,0,8.7-62.1-36.6-56.3-45.3,5.8-71.2,71-71.2,71"/>
          <path class="cls-6" d="M793.5,511.3s-225,22.4-146,327.7l19.9,1.5,40.4,3"/>
          <path class="cls-13" d="M874,1060.1c-88.6-8.6-194.2-65.4-194.9-185.7l-.6-108.6c-.6-120.3,62.1-218.2,175.4-218.8,113.3-.6,198.5,96.5,199.1,216.8l.2,48.1c0,9.9-.9,27.7-4,49.3-6.1,43.2-15.6,108.9-45.3,153.1-28,41.8-73.4,51.3-130,45.8h0Z"/>
          <path class="cls-13" d="M686.3,911c-34.4.2-62.5-36.5-62.7-70.9-.2-34.4,27.6-53.6,62.1-53.7l17.9,23,12.4,101.6-29.6.2h0Z"/>
          <path class="cls-6" d="M710.5,854.9c5.7.6,10.9-3.6,11.4-9.3,3.8-37.1,19.7-161.3,63.6-169.9,34.4-6.7,117.4,42.6,194.8,28.5,33.8-6.2,65.8,2.4,69,18.4,1.2,6.3,23-84.3-29.4-153.6-41.7-55.2-179.5-71.7-242.3-54.2-174,48.5-99.1,279.1-99.1,279.1l6.3,50.4c.6,4.9,4.5,8.7,9.4,9.1l16.3,1.6h0Z"/>
          <path class="cls-6" d="M960.4,627.5c25.5-5.1,40.1-39.8,32.5-77.3-7.6-37.6-34.4-63.9-59.9-58.7-25.5,5.1-40.1,39.8-32.5,77.3,7.6,37.6,34.4,63.9,59.9,58.7Z"/>
          <path class="cls-9" d="M780.7,1284.7c-148.5-7-154.8-133.1-154.8-133.1,0,0-73.6,4.8-122.5,11.4-80.1,10.8-132.9,38-175,80-39.1,39.1-62.9,81.4-37.7,351.6,18.2,195.6,5.4,626,5.4,626h896.4s53.8-564,61.2-652.1c14.3-168.1,25.9-314.6-9-349.5-71.8-71.8-212.6-67.4-274.3-67.4-1,0,12.5,142.6-189.8,133.1h0Z"/>
          <path class="cls-9" d="M2088.9,2214.8l-647.4,3.2c-63.4-4.6-118.4-45.5-141-105l-319.3-708.4c-32-84.3,10.4-178.7,94.8-210.7,84.4-32,167.7-10.5,199.7,73.9l293.3,631.8,533,8.6s-9.1,306.8-13.1,306.5Z"/>
          <path class="cls-6" d="M1241,1607.9c0-1.2,1.1-2.1,2.3-2,1.2,0,2.1,1.1,2,2.3l-18.2,291.1c0,1.1-.9,1.9-2,2,0,0-.2,0-.3,0-1.2,0-2.1-1.1-2-2.3"/>
          <path class="cls-13" d="M1351.4,1920.1l-131.3-46,18.8-1.3c12.5-1.4,22.6-11.9,21.9-24.5-.8-13.4-12.5-23.2-25.7-21.8l-232.3,24.7,6,74.6c3.8,47.4,36.1,87.8,81.5,102l100.6,31.3c10.7,3.4,22.8-.8,28.1-10.7,5.1-9.5,3-20.3-3.7-27.2.3-.2.6-.5.7-.9.3-.7.1-1.4-.3-2l18.5,5.8c12,3.8,25.5-1.8,29.9-13.6,4-10.8-.5-22.6-10-28.1.2-.1.4-.3.6-.5l7.6,2.4c10.7,3.3,22.8-.8,28.1-10.7,6.2-11.6,1.8-24.9-8.4-31.1,0-.2,0-.3,0-.5l54.7,19.2c11.4,4,23.9-2,27.9-13.4,4-11.4-2-23.9-13.4-27.9Z"/>
          <path class="cls-5" d="M1280.2,1944.3c-.2,0-.5,0-.7-.1l-52.9-19.2c-1.1-.4-1.7-1.7-1.3-2.8.4-1.1,1.7-1.7,2.8-1.3l52.9,19.2c1.1.4,1.7,1.7,1.3,2.8-.3.9-1.2,1.4-2,1.4Z"/>
          <path class="cls-5" d="M1253.4,1982.8c-.2,0-.5,0-.7-.1l-41.7-14.8c-1.1-.4-1.7-1.7-1.3-2.8.4-1.1,1.6-1.7,2.8-1.3l41.7,14.8c1.1.4,1.7,1.6,1.3,2.8-.3.9-1.2,1.4-2,1.4Z"/>
          <path class="cls-5" d="M1214.2,2021.8c-.3,0-.5,0-.8-.1l-19.5-7.5c-1.1-.4-1.7-1.7-1.3-2.8.4-1.1,1.7-1.7,2.8-1.3l19.5,7.4c1.1.4,1.7,1.7,1.3,2.8-.3.9-1.2,1.4-2,1.4h0Z"/>
          <path class="cls-9" d="M1100.3,2082.6l-814,134.9c-5.9.6-11.8,1-17.7,1-44.7,0-87.8-18.4-118.8-51.3-35.1-37.2-50.8-88.8-42.3-139.2l173.6-695.3c15-89,99.2-148.9,188.2-134,89,15,149,99.2,134,188.2l-133.1,484.6,591.5-80.8,38.6,291.9h0Z"/>
          <path class="cls-6" d="M364.1,1886.7c-1.1,0-2-.8-2.2-1.8-.2-1.2.6-2.3,1.8-2.5l101.5-15.2c1.2-.2,2.3.6,2.5,1.8.2,1.2-.6,2.3-1.8,2.5l-101.5,15.2c-.1,0-.2,0-.3,0Z"/>
          <path class="cls-6" d="M309,2220.6c-1.1,0-2-.8-2.2-1.9-.2-1.2.7-2.3,1.9-2.4l787-135.4-38.2-287.5-587.4,78.1c-.7,0-1.4-.1-1.9-.6-.5-.5-.7-1.2-.6-1.9l63.6-274.2c.2-1.2,1.3-2,2.5-1.8,1.2.2,2,1.3,1.8,2.5l-63.1,271.3,586.7-78c.6,0,1.2,0,1.6.4.5.4.8.9.8,1.5l38.6,291.9c.1,1.2-.7,2.2-1.9,2.4l-789.2,135.7c0,0-.2,0-.3,0Z"/>
          <path class="cls-2" d="M1725.9,2141l213.1-655.2c7.7-23.6,29.7-39.6,54.5-39.6h868.3c39,0,66.6,38,54.5,75.1l-213.1,655.2c-7.7,23.6-29.7,39.6-54.5,39.6h-868.4c-39,0-66.6-38-54.5-75.1Z"/>
          <path class="cls-2" d="M1899.8,2163h-581.3c-14.5,0-26.2,11.7-26.2,26.2v.7c0,14.5,11.7,26.2,26.2,26.2h581.3c14.5,0,26.2-11.7,26.2-26.2v-.7c0-14.5-11.7-26.2-26.2-26.2Z"/>
          <path class="cls-10" d="M2321.2,1954.2c50.3,0,91.1-40.8,91.1-91.1s-40.8-91.1-91.1-91.1-91.1,40.8-91.1,91.1,40.8,91.1,91.1,91.1Z"/>
          <path class="cls-2" d="M3344.2,2225H6.5c-2.4,0-4.4-2-4.4-4.4s2-4.4,4.4-4.4h3337.7c2.4,0,4.4,1.9,4.4,4.4s-1.9,4.4-4.4,4.4Z"/>
          <path class="cls-7" d="M3232.6,1045.4h-552.9v558h552.9v-558Z"/>
          <path class="cls-7" d="M3232.6,1603.5h21.9v-558h-21.9v558Z"/>
          <path class="cls-4" d="M7.8,1819.3c-31.1-162.1,29.2-337.9,203.6-482.7,477.2-396.3,456.9-316.7,540.8-793.7C836.1,66,1542-120.1,2064.9,78.7c633,240.7,304.6,331.1,1059.4,733,652.5,347.4,47.8,1002.3-1028.9,1277C1225.1,2310.7,97.9,2288.6,7.8,1819.3Z"/>
          <path class="cls-13" d="M1006.4,1162.2c-1-.1-12,181.9-223.4,166-146.4-11-198.6-166.3-201.9-166.3,15.8-3.4,35.3-8.4,43-10.2,25.8-5.8,57.9-27,65.3-71.8,4.3-25.8-3-157.8-.7-183.9l224.7,50.1c-3.1,55.1-25.1,182.9,51.9,205.5,12.8,3.8,26.6,7.2,41.1,10.5Z"/>
          <path class="cls-3" d="M916.6,1099.5c-3.2-10.2-5.1-19-6.8-34.9-3-28.4-1.4-54.5,1.5-81.1-45.4-6.1-89-25.1-124.2-54.4-4.2,15.4-27.1,82.7-20.8,97.4,12,27.7,68.4,73,150.2,73Z"/>
          <path class="cls-6" d="M1050.2,752.1s64.5-47.9,81.2-159.2c13-86.2-67-30.9-67-30.9,0,0,8.7-62.1-36.6-56.3-45.3,5.8-71.2,71-71.2,71"/>
          <path class="cls-6" d="M793.5,511.3s-225,22.4-146,327.7l19.9,1.5,40.4,3"/>
          <path class="cls-13" d="M874,1060.1c-88.6-8.6-194.2-65.4-194.9-185.7l-.6-108.6c-.6-120.3,62.1-218.2,175.4-218.8,113.3-.6,198.5,96.5,199.1,216.8l.2,48.1c0,9.9-.9,27.7-4,49.3-6.1,43.2-15.6,108.9-45.3,153.1-28,41.8-73.4,51.3-130,45.8h0Z"/>
          <path class="cls-13" d="M686.3,911c-34.4.2-62.5-36.5-62.7-70.9-.2-34.4,27.6-53.6,62.1-53.7l17.9,23,12.4,101.6-29.6.2h0Z"/>
          <path class="cls-6" d="M710.5,854.9c5.7.6,10.9-3.6,11.4-9.3,3.8-37.1,19.7-161.3,63.6-169.9,34.4-6.7,117.4,42.6,194.8,28.5,33.8-6.2,65.8,2.4,69,18.4,1.2,6.3,23-84.3-29.4-153.6-41.7-55.2-179.5-71.7-242.3-54.2-174,48.5-99.1,279.1-99.1,279.1l6.3,50.4c.6,4.9,4.5,8.7,9.4,9.1l16.3,1.6h0Z"/>
          <path class="cls-6" d="M960.4,627.5c25.5-5.1,40.1-39.8,32.5-77.3-7.6-37.6-34.4-63.9-59.9-58.7-25.5,5.1-40.1,39.8-32.5,77.3,7.6,37.6,34.4,63.9,59.9,58.7Z"/>
          <path class="cls-9" d="M780.7,1284.7c-148.5-7-154.8-133.1-154.8-133.1,0,0-73.6,4.8-122.5,11.4-80.1,10.8-132.9,38-175,80-39.1,39.1-62.9,81.4-37.7,351.6,18.2,195.6,5.4,626,5.4,626h896.4s53.8-564,61.2-652.1c14.3-168.1,25.9-314.6-9-349.5-71.8-71.8-212.6-67.4-274.3-67.4-1,0,12.5,142.6-189.8,133.1h0Z"/>
          <path class="cls-9" d="M2088.9,2214.8l-647.4,3.2c-63.4-4.6-118.4-45.5-141-105l-319.3-708.4c-32-84.3,10.4-178.7,94.8-210.7,84.4-32,167.7-10.5,199.7,73.9l293.3,631.8,533,8.6s-9.1,306.8-13.1,306.5Z"/>
          <path class="cls-6" d="M1241,1607.9c0-1.2,1.1-2.1,2.3-2,1.2,0,2.1,1.1,2,2.3l-18.2,291.1c0,1.1-.9,1.9-2,2,0,0-.2,0-.3,0-1.2,0-2.1-1.1-2-2.3"/>
          <path class="cls-13" d="M1351.4,1920.1l-131.3-46,18.8-1.3c12.5-1.4,22.6-11.9,21.9-24.5-.8-13.4-12.5-23.2-25.7-21.8l-232.3,24.7,6,74.6c3.8,47.4,36.1,87.8,81.5,102l100.6,31.3c10.7,3.4,22.8-.8,28.1-10.7,5.1-9.5,3-20.3-3.7-27.2.3-.2.6-.5.7-.9.3-.7.1-1.4-.3-2l18.5,5.8c12,3.8,25.5-1.8,29.9-13.6,4-10.8-.5-22.6-10-28.1.2-.1.4-.3.6-.5l7.6,2.4c10.7,3.3,22.8-.8,28.1-10.7,6.2-11.6,1.8-24.9-8.4-31.1,0-.2,0-.3,0-.5l54.7,19.2c11.4,4,23.9-2,27.9-13.4,4-11.4-2-23.9-13.4-27.9Z"/>
          <path class="cls-5" d="M1280.2,1944.3c-.2,0-.5,0-.7-.1l-52.9-19.2c-1.1-.4-1.7-1.7-1.3-2.8.4-1.1,1.7-1.7,2.8-1.3l52.9,19.2c1.1.4,1.7,1.7,1.3,2.8-.3.9-1.2,1.4-2,1.4Z"/>
          <path class="cls-5" d="M1253.4,1982.8c-.2,0-.5,0-.7-.1l-41.7-14.8c-1.1-.4-1.7-1.7-1.3-2.8.4-1.1,1.6-1.7,2.8-1.3l41.7,14.8c1.1.4,1.7,1.6,1.3,2.8-.3.9-1.2,1.4-2,1.4Z"/>
          <path class="cls-5" d="M1214.2,2021.8c-.3,0-.5,0-.8-.1l-19.5-7.5c-1.1-.4-1.7-1.7-1.3-2.8.4-1.1,1.7-1.7,2.8-1.3l19.5,7.4c1.1.4,1.7,1.7,1.3,2.8-.3.9-1.2,1.4-2,1.4h0Z"/>
          <path class="cls-9" d="M1100.3,2082.6l-814,134.9c-5.9.6-11.8,1-17.7,1-44.7,0-87.8-18.4-118.8-51.3-35.1-37.2-50.8-88.8-42.3-139.2l173.6-695.3c15-89,99.2-148.9,188.2-134,89,15,149,99.2,134,188.2l-133.1,484.6,591.5-80.8,38.6,291.9h0Z"/>
          <path class="cls-6" d="M364.1,1886.7c-1.1,0-2-.8-2.2-1.8-.2-1.2.6-2.3,1.8-2.5l101.5-15.2c1.2-.2,2.3.6,2.5,1.8.2,1.2-.6,2.3-1.8,2.5l-101.5,15.2c-.1,0-.2,0-.3,0Z"/>
          <path class="cls-6" d="M309,2220.6c-1.1,0-2-.8-2.2-1.9-.2-1.2.7-2.3,1.9-2.4l787-135.4-38.2-287.5-587.4,78.1c-.7,0-1.4-.1-1.9-.6-.5-.5-.7-1.2-.6-1.9l63.6-274.2c.2-1.2,1.3-2,2.5-1.8,1.2.2,2,1.3,1.8,2.5l-63.1,271.3,586.7-78c.6,0,1.2,0,1.6.4.5.4.8.9.8,1.5l38.6,291.9c.1,1.2-.7,2.2-1.9,2.4l-789.2,135.7c0,0-.2,0-.3,0Z"/>
          <path class="cls-2" d="M1725.9,2141l213.1-655.2c7.7-23.6,29.7-39.6,54.5-39.6h868.3c39,0,66.6,38,54.5,75.1l-213.1,655.2c-7.7,23.6-29.7,39.6-54.5,39.6h-868.4c-39,0-66.6-38-54.5-75.1Z"/>
          <path class="cls-2" d="M1899.8,2163h-581.3c-14.5,0-26.2,11.7-26.2,26.2v.7c0,14.5,11.7,26.2,26.2,26.2h581.3c14.5,0,26.2-11.7,26.2-26.2v-.7c0-14.5-11.7-26.2-26.2-26.2Z"/>
          <path class="cls-10" d="M2321.2,1954.2c50.3,0,91.1-40.8,91.1-91.1s-40.8-91.1-91.1-91.1-91.1,40.8-91.1,91.1,40.8,91.1,91.1,91.1Z"/>
          <path class="cls-2" d="M3344.2,2225H6.5c-2.4,0-4.4-2-4.4-4.4s2-4.4,4.4-4.4h3337.7c2.4,0,4.4,1.9,4.4,4.4s-1.9,4.4-4.4,4.4Z"/>
          <path class="cls-10" d="M3151,1279h-563.9c-22.3,0-40.4-18.1-40.4-40.4v-410.5c0-22.3,18.1-40.4,40.4-40.4h563.9c22.3,0,40.4,18.1,40.4,40.4v410.5c0,22.3-18.1,40.4-40.4,40.4h0Z"/>
          <path class="cls-2" d="M2545,1238.6v-410.5c0-23.2,18.8-42.1,42.1-42.1h563.9c23.2,0,42.1,18.8,42.1,42.1v410.5c0,23.2-18.9,42.1-42.1,42.1h-563.9c-23.2,0-42.1-18.8-42.1-42.1h0ZM2587.1,789.4c-21.4,0-38.7,17.3-38.7,38.7v410.5c0,21.4,17.3,38.7,38.7,38.7h563.9c21.4,0,38.7-17.3,38.7-38.7v-410.5c0-21.4-17.3-38.7-38.7-38.7h-563.9Z"/>
          <path class="cls-8" d="M2546.7,828.1v34.2h644.7v-34.2c0-22.3-18.1-40.4-40.4-40.4h-563.9c-22.3,0-40.4,18.1-40.4,40.4h0Z"/>
          <path class="cls-2" d="M2947.9,966.3h-165.5c-.7,0-1.4-.6-1.4-1.3s.6-1.3,1.4-1.3h165.5c.8,0,1.3.6,1.3,1.3s-.6,1.3-1.3,1.3Z"/>
          <path class="cls-9" d="M3094,966.3h-116.9c-.8,0-1.4-.6-1.4-1.3s.6-1.3,1.4-1.3h116.9c.7,0,1.4.6,1.4,1.3s-.6,1.3-1.4,1.3Z"/>
          <path class="cls-2" d="M3156.7,966.3h-35.8c-.7,0-1.3-.6-1.3-1.3s.6-1.3,1.3-1.3h35.8c.7,0,1.4.6,1.4,1.3s-.6,1.3-1.4,1.3Z"/>
          <path class="cls-2" d="M3028.9,1015h-246.5c-.7,0-1.4-.6-1.4-1.3s.6-1.4,1.4-1.4h246.5c.7,0,1.4.6,1.4,1.4s-.6,1.3-1.4,1.3Z"/>
          <path class="cls-11" d="M3094,1015h-35.8c-.7,0-1.3-.6-1.3-1.3s.6-1.4,1.3-1.4h35.8c.7,0,1.4.6,1.4,1.4s-.6,1.3-1.4,1.3Z"/>
          <path class="cls-9" d="M2812.8,990.7h-30.4c-.7,0-1.4-.6-1.4-1.3s.6-1.3,1.4-1.3h30.4c.7,0,1.3.6,1.3,1.3s-.6,1.3-1.3,1.3Z"/>
          <path class="cls-11" d="M3012.9,990.7h-170.9c-.8,0-1.4-.6-1.4-1.3s.6-1.3,1.4-1.3h170.9c.7,0,1.4.6,1.4,1.3s-.6,1.3-1.4,1.3Z"/>
          <path class="cls-2" d="M3156.9,990.7h-111.5c-.8,0-1.4-.6-1.4-1.3s.6-1.3,1.4-1.3h111.5c.8,0,1.4.6,1.4,1.3s-.6,1.3-1.4,1.3Z"/>
          <path class="cls-2" d="M2947.9,1039.4h-165.5c-.7,0-1.4-.6-1.4-1.3s.6-1.3,1.4-1.3h165.5c.8,0,1.3.6,1.3,1.3s-.6,1.3-1.3,1.3Z"/>
          <path class="cls-9" d="M3040,1039.4h-62.8c-.8,0-1.4-.6-1.4-1.3s.6-1.3,1.4-1.3h62.8c.7,0,1.4.6,1.4,1.3s-.6,1.3-1.4,1.3Z"/>
          <path class="cls-2" d="M3156.7,1039.4h-89.9c-.7,0-1.4-.6-1.4-1.3s.6-1.3,1.4-1.3h89.9c.7,0,1.4.6,1.4,1.3s-.6,1.3-1.4,1.3Z"/>
          <path class="cls-11" d="M2812.8,1063.8h-30.4c-.7,0-1.4-.6-1.4-1.3s.6-1.3,1.4-1.3h30.4c.7,0,1.3.6,1.3,1.3s-.6,1.3-1.3,1.3Z"/>
          <path class="cls-9" d="M3012.9,1063.8h-170.9c-.8,0-1.4-.6-1.4-1.3s.6-1.3,1.4-1.3h170.9c.7,0,1.4.6,1.4,1.3s-.6,1.3-1.4,1.3Z"/>
          <path class="cls-2" d="M2942.5,1161.2h-165.5c-.8,0-1.3-.6-1.3-1.3s.6-1.3,1.3-1.3h165.5c.7,0,1.4.6,1.4,1.3s-.6,1.3-1.4,1.3Z"/>
          <path class="cls-11" d="M3088.6,1161.2h-116.9c-.8,0-1.3-.6-1.3-1.3s.6-1.3,1.3-1.3h116.9c.8,0,1.3.6,1.3,1.3s-.6,1.3-1.3,1.3Z"/>
          <path class="cls-9" d="M2861.4,1136.9h-84.4c-.8,0-1.3-.6-1.3-1.4s.6-1.3,1.3-1.3h84.4c.8,0,1.4.6,1.4,1.3s-.6,1.4-1.4,1.4Z"/>
          <path class="cls-11" d="M3007.5,1136.9h-116.9c-.7,0-1.3-.6-1.3-1.4s.6-1.3,1.3-1.3h116.9c.8,0,1.3.6,1.3,1.3s-.6,1.4-1.3,1.4Z"/>
          <path class="cls-2" d="M3151.5,1136.9h-111.5c-.8,0-1.4-.6-1.4-1.4s.6-1.3,1.4-1.3h111.5c.7,0,1.3.6,1.3,1.3s-.6,1.4-1.3,1.4Z"/>
          <path class="cls-11" d="M3023.5,1210h-246.5c-.8,0-1.3-.6-1.3-1.3s.6-1.3,1.3-1.3h246.5c.8,0,1.4.6,1.4,1.3s-.6,1.3-1.4,1.3Z"/>
          <path class="cls-2" d="M3088.6,1210h-35.8c-.8,0-1.4-.6-1.4-1.3s.6-1.3,1.4-1.3h35.8c.8,0,1.3.6,1.3,1.3s-.6,1.3-1.3,1.3Z"/>
          <path class="cls-11" d="M2807.4,1185.6h-30.4c-.8,0-1.3-.6-1.3-1.3s.6-1.3,1.3-1.3h30.4c.8,0,1.4.6,1.4,1.3s-.6,1.3-1.4,1.3Z"/>
          <path class="cls-2" d="M3007.5,1185.6h-170.9c-.8,0-1.3-.6-1.3-1.3s.6-1.3,1.3-1.3h170.9c.8,0,1.3.6,1.3,1.3s-.6,1.3-1.3,1.3Z"/>
          <path class="cls-9" d="M3151.5,1185.6h-111.5c-.8,0-1.4-.6-1.4-1.3s.6-1.3,1.4-1.3h111.5c.7,0,1.3.6,1.3,1.3s-.6,1.3-1.3,1.3Z"/>
          <path class="cls-9" d="M2942.5,1234.4h-165.5c-.8,0-1.3-.6-1.3-1.4s.6-1.3,1.3-1.3h165.5c.7,0,1.4.6,1.4,1.3s-.6,1.4-1.4,1.4Z"/>
          <path class="cls-2" d="M3034.6,1234.4h-62.8c-.8,0-1.3-.6-1.3-1.4s.6-1.3,1.3-1.3h62.8c.8,0,1.3.6,1.3,1.3s-.6,1.4-1.3,1.4Z"/>
          <path class="cls-11" d="M3151.3,1234.4h-89.9c-.7,0-1.3-.6-1.3-1.4s.6-1.3,1.3-1.3h89.9c.8,0,1.3.6,1.3,1.3s-.6,1.4-1.3,1.4Z"/>
          <path class="cls-10" d="M3142.6,849.4c12,0,21.7-9.7,21.7-21.7s-9.7-21.7-21.7-21.7-21.7,9.7-21.7,21.7,9.7,21.7,21.7,21.7Z"/>
          <rect class="cls-1" x="2584.8" y="875.5" width="100" height="128"/>
        </g>
      </g>
    </g>
  </g>
</svg>